<svg width="45" height="73" viewBox="0 0 45 73" fill="none" xmlns="http://www.w3.org/2000/svg">
<path d="M30.6709 23.084C30.4266 23.0851 30.1846 23.0358 29.9588 22.939C29.7331 22.8422 29.5281 22.6999 29.3559 22.5203C28.4642 21.5946 27.4054 20.8603 26.2399 20.3592C25.0743 19.8582 23.825 19.6003 22.5633 19.6003C21.3016 19.6003 20.0523 19.8582 18.8868 20.3592C17.7212 20.8603 16.6624 21.5946 15.7708 22.5203C15.4216 22.8823 14.948 23.0858 14.4542 23.0858C13.9604 23.0858 13.4868 22.8823 13.1376 22.5203C12.7884 22.1582 12.5922 21.6671 12.5922 21.155C12.5922 20.643 12.7884 20.1519 13.1376 19.7898C14.3749 18.506 15.8441 17.4876 17.4611 16.7928C19.0782 16.0979 20.8114 15.7403 22.5618 15.7403C24.3122 15.7403 26.0454 16.0979 27.6625 16.7928C29.2795 17.4876 30.7487 18.506 31.986 19.7898C32.2458 20.0598 32.4227 20.4035 32.4943 20.7776C32.5659 21.1517 32.5291 21.5395 32.3884 21.8919C32.2477 22.2443 32.0095 22.5456 31.7038 22.7577C31.3982 22.9699 31.0388 23.0834 30.6709 23.084Z" fill="#FFCE42"/>
<path d="M8.11549 17.8372C7.75546 17.8366 7.40367 17.7199 7.1045 17.5019C6.80532 17.2838 6.57216 16.9742 6.43446 16.6121C6.29676 16.2499 6.26068 15.8515 6.33077 15.467C6.40086 15.0826 6.57398 14.7293 6.82828 14.4519C8.89243 12.1992 11.3445 10.412 14.044 9.19258C16.7435 7.97315 19.6375 7.34546 22.5602 7.34546C25.4828 7.34546 28.3768 7.97315 31.0763 9.19258C33.7759 10.412 36.2279 12.1992 38.292 14.4519C38.6338 14.824 38.8258 15.3286 38.8258 15.8549C38.8258 16.3811 38.6338 16.8858 38.292 17.2578C38.1228 17.4421 37.9219 17.5882 37.7008 17.688C37.4797 17.7877 37.2427 17.839 37.0034 17.839C36.52 17.839 36.0564 17.6299 35.7147 17.2578C33.9882 15.3753 31.9377 13.8818 29.6805 12.8628C27.4233 11.8438 25.0037 11.3193 22.5602 11.3193C20.1166 11.3193 17.697 11.8438 15.4398 12.8628C13.1827 13.8818 11.1322 15.3753 9.40568 17.2578C9.23633 17.4423 9.03515 17.5884 8.81373 17.6878C8.5923 17.7872 8.355 17.838 8.11549 17.8372Z" fill="#FFCE42"/>
<path d="M42.3063 11.5413C42.0742 11.5417 41.8444 11.4977 41.6299 11.4121C41.4155 11.3265 41.2207 11.2008 41.0566 11.0423C38.5616 8.62529 35.5975 6.70765 32.334 5.39922C29.0705 4.09079 25.5719 3.41728 22.0385 3.41728C18.5052 3.41728 15.0065 4.09079 11.7431 5.39922C8.47961 6.70765 5.51547 8.62529 3.02049 11.0423C2.68867 11.3628 2.23863 11.5429 1.76937 11.5429C1.3001 11.5429 0.850049 11.3628 0.518229 11.0423C0.186408 10.7217 0 10.2869 0 9.83362C0 9.38029 0.186408 8.94553 0.518229 8.62498C3.34174 5.89095 6.6958 3.72183 10.3883 2.24182C14.0809 0.761813 18.0394 0 22.0371 0C26.0348 0 29.9933 0.761813 33.6859 2.24182C37.3784 3.72183 40.7325 5.89095 43.556 8.62498C43.8029 8.86399 43.9709 9.16829 44.039 9.49949C44.107 9.83069 44.072 10.1739 43.9383 10.4859C43.8046 10.7979 43.5783 11.0646 43.2878 11.2525C42.9973 11.4403 42.6558 11.5408 42.3063 11.5413Z" fill="#FFCE42"/>
<path d="M29.9592 72.4043H14.1136C13.9171 72.4108 13.7209 72.3884 13.5367 72.3387C13.3526 72.2889 13.1843 72.2127 13.0421 72.1147C12.8999 72.0168 12.7867 71.899 12.7094 71.7686C12.6321 71.6382 12.5922 71.4979 12.5922 71.3561C12.5922 71.2142 12.6321 71.0739 12.7094 70.9435C12.7867 70.8131 12.8999 70.6954 13.0421 70.5974C13.1843 70.4994 13.3526 70.4232 13.5367 70.3734C13.7209 70.3237 13.9171 70.3013 14.1136 70.3078H29.9592C30.1557 70.3013 30.3519 70.3237 30.5361 70.3734C30.7202 70.4232 30.8885 70.4994 31.0307 70.5974C31.1729 70.6954 31.2861 70.8131 31.3634 70.9435C31.4407 71.0739 31.4806 71.2142 31.4806 71.3561C31.4806 71.4979 31.4407 71.6382 31.3634 71.7686C31.2861 71.899 31.1729 72.0168 31.0307 72.1147C30.8885 72.2127 30.7202 72.2889 30.5361 72.3387C30.3519 72.3884 30.1557 72.4108 29.9592 72.4043Z" fill="#FFCE42"/>
<path d="M22.0363 72.4054C21.7595 72.4054 21.4939 72.2551 21.2973 71.9873C21.1008 71.7195 20.9892 71.3559 20.9869 70.9756V59.1561C20.9869 58.7737 21.0975 58.407 21.2943 58.1367C21.4911 57.8663 21.758 57.7144 22.0363 57.7144C22.3146 57.7144 22.5815 57.8663 22.7783 58.1367C22.9751 58.407 23.0856 58.7737 23.0856 59.1561V70.9756C23.0834 71.3559 22.9718 71.7195 22.7752 71.9873C22.5787 72.2551 22.3131 72.4054 22.0363 72.4054Z" fill="#FFCE42"/>
<path d="M22.1161 60.8625H21.9726C20.3278 60.8633 18.6989 60.4961 17.1791 59.7817C15.6593 59.0674 14.2782 58.02 13.1147 56.6993C11.9513 55.3785 11.0283 53.8104 10.3984 52.0844C9.76858 50.3585 9.44421 48.5085 9.44385 46.6401C9.44385 46.2375 9.58463 45.8514 9.83523 45.5668C10.0858 45.2821 10.4257 45.1222 10.7801 45.1222C11.1345 45.1222 11.4744 45.2821 11.725 45.5668C11.9756 45.8514 12.1163 46.2375 12.1163 46.6401C12.1171 49.6067 13.1549 52.4516 15.0016 54.5493C16.8482 56.647 19.3527 57.8259 21.9643 57.8267H22.1079C24.7195 57.8259 27.2239 56.647 29.0706 54.5493C30.9173 52.4516 31.9551 49.6067 31.9558 46.6401C31.9558 46.2375 32.0966 45.8514 32.3472 45.5668C32.5978 45.2821 32.9377 45.1222 33.2921 45.1222C33.6465 45.1222 33.9863 45.2821 34.2369 45.5668C34.4875 45.8514 34.6283 46.2375 34.6283 46.6401C34.6276 50.4118 33.3082 54.0289 30.9604 56.6959C28.6125 59.363 25.4283 60.8617 22.1079 60.8625H22.1161Z" fill="#FFCE42"/>
<path d="M25.451 46.5933V44.8106H29.3816V43.028H25.451V41.2453H29.3816V39.4511H25.451V37.6684H29.3816V35.8742H25.451V34.0857H29.3816V33.7569C29.3816 31.7616 28.6156 29.8481 27.2522 28.4373C25.8887 27.0264 24.0395 26.2338 22.1114 26.2338H21.9664C20.0382 26.2338 18.189 27.0264 16.8256 28.4373C15.4622 29.8481 14.6962 31.7616 14.6962 33.7569V34.0857H18.6212V35.8684H14.6906V37.6626H18.6156V39.4453H14.6906V41.2395H18.6156V43.028H14.6906V44.8222H18.6156V46.6049H14.6906V47.0577C14.6943 49.0505 15.4619 50.9603 16.8249 52.368C18.188 53.7757 20.0351 54.5664 21.9608 54.5664H22.1058C23.0607 54.5671 24.0065 54.3732 24.889 53.9956C25.7716 53.6181 26.5736 53.0643 27.2492 52.366C27.9249 51.6676 28.4609 50.8384 28.8268 49.9256C29.1927 49.0128 29.3812 48.0344 29.3816 47.0462V46.5933H25.451Z" fill="#FFCE42"/>
</svg>
